<svg width="25" height="24" viewBox="0 0 25 24" fill="none" xmlns="http://www.w3.org/2000/svg">
<g id="circum:twitter">
<path id="Vector" d="M20.4019 5.32189C20.5916 5.32347 20.7773 5.37661 20.9388 5.47557C21.1004 5.57452 21.2316 5.71552 21.3183 5.8833C21.405 6.05108 21.4439 6.23925 21.4308 6.42743C21.4177 6.6156 21.353 6.79663 21.2438 6.95089L20.1957 8.43189C20.1313 13.5179 18.4203 16.9709 15.1099 18.6959C13.5324 19.4753 11.7895 19.8659 10.0282 19.8349C7.85029 19.8847 5.69815 19.3588 3.79167 18.3109C3.66342 18.2252 3.5643 18.1029 3.50738 17.9601C3.45045 17.8173 3.4384 17.6607 3.4728 17.5109C3.50501 17.3589 3.58282 17.2202 3.69596 17.1131C3.80909 17.006 3.95224 16.9355 4.10651 16.9109C5.38725 16.7331 6.64844 16.4364 7.87356 16.0249C2.38343 13.4999 3.58043 7.82389 4.10349 6.08089C4.15449 5.90785 4.25037 5.75118 4.38151 5.62662C4.51265 5.50205 4.67445 5.41397 4.85065 5.37122C5.02686 5.32846 5.21128 5.33254 5.3854 5.38303C5.55952 5.43352 5.71722 5.52866 5.84267 5.65889C7.44971 7.30512 9.58047 8.34748 11.873 8.60889C11.8323 7.99643 11.9275 7.38257 12.1519 6.81075C12.3763 6.23893 12.7244 5.72314 13.1716 5.29989C13.9462 4.56906 14.9744 4.16329 16.0424 4.16702C17.1103 4.17074 18.1357 4.58367 18.9051 5.31989L20.4019 5.32189ZM4.91927 17.7939C6.79223 18.6659 11.1819 19.6129 14.6432 17.8099C17.6156 16.2609 19.1455 13.0779 19.1908 8.34889C19.1928 8.19252 19.2426 8.04046 19.3336 7.91289L20.421 6.37489L20.3797 6.32189C19.8587 6.31489 19.3447 6.30789 18.8206 6.32189C18.6163 6.31724 18.4207 6.23866 18.2704 6.10089C17.6914 5.51738 16.9052 5.18296 16.0808 5.1695C15.2564 5.15604 14.4596 5.4646 13.8616 6.02889C13.4775 6.39206 13.1904 6.84458 13.0262 7.34563C12.862 7.84668 12.8259 8.38049 12.9211 8.89889C12.9386 8.99547 12.9338 9.09474 12.9069 9.18917C12.8801 9.2836 12.832 9.37071 12.7662 9.44389C12.7032 9.51771 12.6229 9.57502 12.5324 9.61076C12.4419 9.64651 12.3439 9.6596 12.2472 9.64889C9.54455 9.4614 7.00689 8.28795 5.12145 6.35389C4.44751 8.43189 3.5925 13.4479 9.01323 15.4189C9.12731 15.4596 9.22731 15.5318 9.30145 15.6272C9.37559 15.7225 9.42077 15.8369 9.43168 15.9569C9.44394 16.0751 9.42207 16.1943 9.36863 16.3006C9.31518 16.4068 9.23237 16.4957 9.12991 16.5569C7.80529 17.1991 6.38223 17.6171 4.91927 17.7939Z" fill="white"/>
</g>
</svg>
